<?xml version="1.0" standalone="no"?>
<!DOCTYPE svg PUBLIC "-//W3C//DTD SVG 20010904//EN"
 "http://www.w3.org/TR/2001/REC-SVG-20010904/DTD/svg10.dtd">
<svg version="1.0" xmlns="http://www.w3.org/2000/svg"
 width="1031.000000pt" height="1031.000000pt" viewBox="0 0 1031.000000 1031.000000"
 preserveAspectRatio="xMidYMid meet">
<metadata>
Created by potrace 1.14, written by Peter Selinger 2001-2017
</metadata>
<g transform="translate(0.000000,1031.000000) scale(0.100000,-0.100000)"
fill="#000000" stroke="none">
<path d="M4270 8322 l0 -1544 1282 -1281 1281 -1282 1546 0 1546 0 0 1303 c0
1153 -2 1303 -15 1306 -8 2 -459 3 -1003 3 l-987 -2 -518 518 -517 517 -2 993
c-1 545 -2 997 -2 1003 -1 8 -376 11 -1306 11 l-1305 0 0 -1545z"/>
<path d="M465 6042 c-20 -3 -20 -10 -20 -1305 l0 -1302 1005 -5 1005 -5 508
-509 c280 -281 512 -517 516 -525 4 -9 7 -463 7 -1008 -1 -876 1 -993 14 -994
19 -1 2560 -1 2581 0 15 1 16 129 16 1545 l0 1544 -1279 1278 c-703 704 -1281
1281 -1283 1283 -5 4 -3041 7 -3070 3z"/>
</g>
</svg>
